<mxfile host="Electron" modified="2023-12-17T19:41:46.007Z" agent="Mozilla/5.0 (Windows NT 10.0; Win64; x64) AppleWebKit/537.36 (KHTML, like Gecko) draw.io/22.1.2 Chrome/114.0.5735.289 Electron/25.9.4 Safari/537.36" etag="hY2e1C5ZsXVctQMTLmgk" version="22.1.2" type="device">
  <diagram id="R2lEEEUBdFMjLlhIrx00" name="Page-1">
    <mxGraphModel dx="2391" dy="2306" grid="1" gridSize="10" guides="1" tooltips="1" connect="1" arrows="1" fold="1" page="1" pageScale="1" pageWidth="850" pageHeight="1100" math="0" shadow="0" extFonts="Permanent Marker^https://fonts.googleapis.com/css?family=Permanent+Marker">
      <root>
        <mxCell id="0" />
        <mxCell id="1" parent="0" />
        <mxCell id="lmZwWqNMLVkpS8_7VC-I-85" style="edgeStyle=orthogonalEdgeStyle;rounded=0;orthogonalLoop=1;jettySize=auto;html=1;entryX=0.5;entryY=0;entryDx=0;entryDy=0;" parent="1" source="lmZwWqNMLVkpS8_7VC-I-1" target="lmZwWqNMLVkpS8_7VC-I-84" edge="1">
          <mxGeometry relative="1" as="geometry" />
        </mxCell>
        <mxCell id="lmZwWqNMLVkpS8_7VC-I-1" value="&lt;span style=&quot;font-size: 14px;&quot;&gt;KLIJENT&lt;/span&gt;" style="rounded=0;whiteSpace=wrap;html=1;" parent="1" vertex="1">
          <mxGeometry x="180" y="105" width="120" height="60" as="geometry" />
        </mxCell>
        <mxCell id="X-RrgHV1Gdf56iwSbWIR-30" style="edgeStyle=orthogonalEdgeStyle;rounded=0;orthogonalLoop=1;jettySize=auto;html=1;entryX=0.5;entryY=1;entryDx=0;entryDy=0;" parent="1" source="lmZwWqNMLVkpS8_7VC-I-2" target="X-RrgHV1Gdf56iwSbWIR-26" edge="1">
          <mxGeometry relative="1" as="geometry" />
        </mxCell>
        <mxCell id="Z6134khWnOBLi61K8WME-16" style="edgeStyle=orthogonalEdgeStyle;rounded=0;orthogonalLoop=1;jettySize=auto;html=1;entryX=0.5;entryY=0;entryDx=0;entryDy=0;" edge="1" parent="1" source="lmZwWqNMLVkpS8_7VC-I-2" target="Z6134khWnOBLi61K8WME-12">
          <mxGeometry relative="1" as="geometry" />
        </mxCell>
        <mxCell id="lmZwWqNMLVkpS8_7VC-I-2" value="&lt;font style=&quot;font-size: 14px;&quot;&gt;ROBA&lt;/font&gt;" style="rounded=0;whiteSpace=wrap;html=1;" parent="1" vertex="1">
          <mxGeometry x="695" y="497.5" width="120" height="60" as="geometry" />
        </mxCell>
        <mxCell id="X-RrgHV1Gdf56iwSbWIR-17" style="edgeStyle=orthogonalEdgeStyle;rounded=0;orthogonalLoop=1;jettySize=auto;html=1;entryX=0.5;entryY=0;entryDx=0;entryDy=0;" parent="1" source="lmZwWqNMLVkpS8_7VC-I-3" target="X-RrgHV1Gdf56iwSbWIR-16" edge="1">
          <mxGeometry relative="1" as="geometry" />
        </mxCell>
        <mxCell id="Z6134khWnOBLi61K8WME-19" value="" style="edgeStyle=orthogonalEdgeStyle;rounded=0;orthogonalLoop=1;jettySize=auto;html=1;" edge="1" parent="1" source="lmZwWqNMLVkpS8_7VC-I-3" target="X-RrgHV1Gdf56iwSbWIR-16">
          <mxGeometry relative="1" as="geometry" />
        </mxCell>
        <mxCell id="lmZwWqNMLVkpS8_7VC-I-3" value="&lt;font style=&quot;font-size: 14px;&quot;&gt;PREVOZNIK&lt;/font&gt;" style="rounded=0;whiteSpace=wrap;html=1;" parent="1" vertex="1">
          <mxGeometry x="450" y="-20" width="120" height="60" as="geometry" />
        </mxCell>
        <mxCell id="X-RrgHV1Gdf56iwSbWIR-19" style="edgeStyle=orthogonalEdgeStyle;rounded=0;orthogonalLoop=1;jettySize=auto;html=1;entryX=1;entryY=0.5;entryDx=0;entryDy=0;" parent="1" source="lmZwWqNMLVkpS8_7VC-I-4" target="X-RrgHV1Gdf56iwSbWIR-16" edge="1">
          <mxGeometry relative="1" as="geometry" />
        </mxCell>
        <mxCell id="X-RrgHV1Gdf56iwSbWIR-27" style="edgeStyle=orthogonalEdgeStyle;rounded=0;orthogonalLoop=1;jettySize=auto;html=1;entryX=0.5;entryY=0;entryDx=0;entryDy=0;" parent="1" source="lmZwWqNMLVkpS8_7VC-I-4" edge="1">
          <mxGeometry relative="1" as="geometry">
            <mxPoint x="765" y="369.99999999999955" as="targetPoint" />
          </mxGeometry>
        </mxCell>
        <mxCell id="lmZwWqNMLVkpS8_7VC-I-4" value="&lt;font style=&quot;font-size: 14px;&quot;&gt;VOZILO&lt;/font&gt;" style="rounded=0;whiteSpace=wrap;html=1;" parent="1" vertex="1">
          <mxGeometry x="705" y="250" width="120" height="60" as="geometry" />
        </mxCell>
        <mxCell id="lmZwWqNMLVkpS8_7VC-I-5" value="&lt;font style=&quot;font-size: 14px;&quot;&gt;RUTA&lt;/font&gt;" style="rounded=0;whiteSpace=wrap;html=1;" parent="1" vertex="1">
          <mxGeometry x="715" y="20" width="120" height="55" as="geometry" />
        </mxCell>
        <mxCell id="lmZwWqNMLVkpS8_7VC-I-86" style="edgeStyle=orthogonalEdgeStyle;rounded=0;orthogonalLoop=1;jettySize=auto;html=1;entryX=0.5;entryY=1;entryDx=0;entryDy=0;" parent="1" source="lmZwWqNMLVkpS8_7VC-I-6" target="lmZwWqNMLVkpS8_7VC-I-84" edge="1">
          <mxGeometry relative="1" as="geometry" />
        </mxCell>
        <mxCell id="lmZwWqNMLVkpS8_7VC-I-6" value="&lt;font style=&quot;font-size: 14px;&quot;&gt;PORUDŽBINA&lt;/font&gt;" style="rounded=0;whiteSpace=wrap;html=1;" parent="1" vertex="1">
          <mxGeometry x="180" y="500" width="120" height="60" as="geometry" />
        </mxCell>
        <mxCell id="lmZwWqNMLVkpS8_7VC-I-8" value="IDKlijenta" style="ellipse;whiteSpace=wrap;html=1;" parent="1" vertex="1">
          <mxGeometry x="50" y="65" width="70" height="40" as="geometry" />
        </mxCell>
        <mxCell id="lmZwWqNMLVkpS8_7VC-I-9" value="NazivKlijenta" style="ellipse;whiteSpace=wrap;html=1;" parent="1" vertex="1">
          <mxGeometry x="205" y="25" width="75" height="40" as="geometry" />
        </mxCell>
        <mxCell id="lmZwWqNMLVkpS8_7VC-I-10" value="Adresa" style="ellipse;whiteSpace=wrap;html=1;" parent="1" vertex="1">
          <mxGeometry x="130" y="25" width="70" height="40" as="geometry" />
        </mxCell>
        <mxCell id="lmZwWqNMLVkpS8_7VC-I-11" value="Kontakt" style="ellipse;whiteSpace=wrap;html=1;" parent="1" vertex="1">
          <mxGeometry x="60" y="125" width="70" height="40" as="geometry" />
        </mxCell>
        <mxCell id="lmZwWqNMLVkpS8_7VC-I-15" value="" style="endArrow=none;html=1;rounded=0;exitX=0.5;exitY=1;exitDx=0;exitDy=0;entryX=0.575;entryY=-0.017;entryDx=0;entryDy=0;entryPerimeter=0;" parent="1" source="lmZwWqNMLVkpS8_7VC-I-9" target="lmZwWqNMLVkpS8_7VC-I-1" edge="1">
          <mxGeometry width="50" height="50" relative="1" as="geometry">
            <mxPoint x="220" y="185" as="sourcePoint" />
            <mxPoint x="270" y="135" as="targetPoint" />
          </mxGeometry>
        </mxCell>
        <mxCell id="lmZwWqNMLVkpS8_7VC-I-17" value="" style="endArrow=none;html=1;rounded=0;entryX=0.575;entryY=-0.017;entryDx=0;entryDy=0;entryPerimeter=0;" parent="1" source="lmZwWqNMLVkpS8_7VC-I-10" edge="1">
          <mxGeometry width="50" height="50" relative="1" as="geometry">
            <mxPoint x="180" y="66" as="sourcePoint" />
            <mxPoint x="189" y="105" as="targetPoint" />
          </mxGeometry>
        </mxCell>
        <mxCell id="lmZwWqNMLVkpS8_7VC-I-18" value="" style="endArrow=none;html=1;rounded=0;entryX=0;entryY=0.25;entryDx=0;entryDy=0;" parent="1" source="lmZwWqNMLVkpS8_7VC-I-8" target="lmZwWqNMLVkpS8_7VC-I-1" edge="1">
          <mxGeometry width="50" height="50" relative="1" as="geometry">
            <mxPoint x="171" y="95" as="sourcePoint" />
            <mxPoint x="180" y="134" as="targetPoint" />
          </mxGeometry>
        </mxCell>
        <mxCell id="lmZwWqNMLVkpS8_7VC-I-19" value="" style="endArrow=none;html=1;rounded=0;exitX=1;exitY=0.5;exitDx=0;exitDy=0;entryX=0.575;entryY=-0.017;entryDx=0;entryDy=0;entryPerimeter=0;" parent="1" source="lmZwWqNMLVkpS8_7VC-I-11" edge="1">
          <mxGeometry width="50" height="50" relative="1" as="geometry">
            <mxPoint x="171" y="115.5" as="sourcePoint" />
            <mxPoint x="180" y="154.5" as="targetPoint" />
          </mxGeometry>
        </mxCell>
        <mxCell id="lmZwWqNMLVkpS8_7VC-I-22" value="" style="endArrow=none;html=1;rounded=0;" parent="1" edge="1">
          <mxGeometry width="50" height="50" relative="1" as="geometry">
            <mxPoint x="65" y="95" as="sourcePoint" />
            <mxPoint x="105" y="95" as="targetPoint" />
            <Array as="points">
              <mxPoint x="90" y="95" />
            </Array>
          </mxGeometry>
        </mxCell>
        <mxCell id="lmZwWqNMLVkpS8_7VC-I-25" value="KategorijaRobe" style="ellipse;whiteSpace=wrap;html=1;" parent="1" vertex="1">
          <mxGeometry x="910" y="542.5" width="95" height="40" as="geometry" />
        </mxCell>
        <mxCell id="lmZwWqNMLVkpS8_7VC-I-26" value="Količina" style="ellipse;whiteSpace=wrap;html=1;" parent="1" vertex="1">
          <mxGeometry x="865" y="480" width="70" height="37.5" as="geometry" />
        </mxCell>
        <mxCell id="lmZwWqNMLVkpS8_7VC-I-27" value="Cena" style="ellipse;whiteSpace=wrap;html=1;" parent="1" vertex="1">
          <mxGeometry x="865" y="430" width="70" height="40" as="geometry" />
        </mxCell>
        <mxCell id="lmZwWqNMLVkpS8_7VC-I-30" value="" style="endArrow=none;html=1;rounded=0;exitX=0.298;exitY=0.045;exitDx=0;exitDy=0;entryX=1;entryY=0.75;entryDx=0;entryDy=0;exitPerimeter=0;" parent="1" source="lmZwWqNMLVkpS8_7VC-I-23" target="lmZwWqNMLVkpS8_7VC-I-2" edge="1">
          <mxGeometry width="50" height="50" relative="1" as="geometry">
            <mxPoint x="645" y="497.5" as="sourcePoint" />
            <mxPoint x="695" y="507" as="targetPoint" />
          </mxGeometry>
        </mxCell>
        <mxCell id="lmZwWqNMLVkpS8_7VC-I-31" value="" style="endArrow=none;html=1;rounded=0;exitX=0.5;exitY=0;exitDx=0;exitDy=0;entryX=1;entryY=0.5;entryDx=0;entryDy=0;" parent="1" source="lmZwWqNMLVkpS8_7VC-I-25" target="lmZwWqNMLVkpS8_7VC-I-2" edge="1">
          <mxGeometry width="50" height="50" relative="1" as="geometry">
            <mxPoint x="645" y="522.75" as="sourcePoint" />
            <mxPoint x="695" y="532.25" as="targetPoint" />
          </mxGeometry>
        </mxCell>
        <mxCell id="lmZwWqNMLVkpS8_7VC-I-32" value="" style="endArrow=none;html=1;rounded=0;exitX=0;exitY=0.5;exitDx=0;exitDy=0;entryX=1;entryY=0.25;entryDx=0;entryDy=0;" parent="1" source="lmZwWqNMLVkpS8_7VC-I-26" target="lmZwWqNMLVkpS8_7VC-I-2" edge="1">
          <mxGeometry width="50" height="50" relative="1" as="geometry">
            <mxPoint x="645" y="538" as="sourcePoint" />
            <mxPoint x="695" y="547.5" as="targetPoint" />
          </mxGeometry>
        </mxCell>
        <mxCell id="lmZwWqNMLVkpS8_7VC-I-33" value="" style="endArrow=none;html=1;rounded=0;entryX=0.991;entryY=0.127;entryDx=0;entryDy=0;entryPerimeter=0;exitX=0;exitY=0.5;exitDx=0;exitDy=0;" parent="1" source="lmZwWqNMLVkpS8_7VC-I-27" target="lmZwWqNMLVkpS8_7VC-I-2" edge="1">
          <mxGeometry width="50" height="50" relative="1" as="geometry">
            <mxPoint x="875" y="436" as="sourcePoint" />
            <mxPoint x="715" y="597.5" as="targetPoint" />
          </mxGeometry>
        </mxCell>
        <mxCell id="lmZwWqNMLVkpS8_7VC-I-34" value="IDPrevoznika" style="ellipse;whiteSpace=wrap;html=1;" parent="1" vertex="1">
          <mxGeometry x="370" y="-90" width="80" height="40" as="geometry" />
        </mxCell>
        <mxCell id="lmZwWqNMLVkpS8_7VC-I-35" value="NazivPrevoznika" style="ellipse;whiteSpace=wrap;html=1;" parent="1" vertex="1">
          <mxGeometry x="460" y="-90" width="100" height="40" as="geometry" />
        </mxCell>
        <mxCell id="lmZwWqNMLVkpS8_7VC-I-36" value="Kontakt" style="ellipse;whiteSpace=wrap;html=1;" parent="1" vertex="1">
          <mxGeometry x="570" y="-90" width="70" height="40" as="geometry" />
        </mxCell>
        <mxCell id="lmZwWqNMLVkpS8_7VC-I-37" value="" style="endArrow=none;html=1;rounded=0;" parent="1" edge="1">
          <mxGeometry width="50" height="50" relative="1" as="geometry">
            <mxPoint x="385" y="-60" as="sourcePoint" />
            <mxPoint x="435" y="-60" as="targetPoint" />
          </mxGeometry>
        </mxCell>
        <mxCell id="lmZwWqNMLVkpS8_7VC-I-38" value="" style="endArrow=none;html=1;rounded=0;entryX=0.5;entryY=1;entryDx=0;entryDy=0;exitX=0.142;exitY=-0.007;exitDx=0;exitDy=0;exitPerimeter=0;" parent="1" source="lmZwWqNMLVkpS8_7VC-I-3" target="lmZwWqNMLVkpS8_7VC-I-34" edge="1">
          <mxGeometry width="50" height="50" relative="1" as="geometry">
            <mxPoint x="450" y="10" as="sourcePoint" />
            <mxPoint x="500" y="-40" as="targetPoint" />
          </mxGeometry>
        </mxCell>
        <mxCell id="lmZwWqNMLVkpS8_7VC-I-39" value="" style="endArrow=none;html=1;rounded=0;entryX=0.5;entryY=0;entryDx=0;entryDy=0;exitX=0.5;exitY=1;exitDx=0;exitDy=0;" parent="1" source="lmZwWqNMLVkpS8_7VC-I-35" target="lmZwWqNMLVkpS8_7VC-I-3" edge="1">
          <mxGeometry width="50" height="50" relative="1" as="geometry">
            <mxPoint x="470" y="30" as="sourcePoint" />
            <mxPoint x="520" y="-20" as="targetPoint" />
          </mxGeometry>
        </mxCell>
        <mxCell id="lmZwWqNMLVkpS8_7VC-I-40" value="" style="endArrow=none;html=1;rounded=0;entryX=0.838;entryY=0.002;entryDx=0;entryDy=0;entryPerimeter=0;exitX=0.5;exitY=1;exitDx=0;exitDy=0;" parent="1" source="lmZwWqNMLVkpS8_7VC-I-36" target="lmZwWqNMLVkpS8_7VC-I-3" edge="1">
          <mxGeometry width="50" height="50" relative="1" as="geometry">
            <mxPoint x="450" y="30" as="sourcePoint" />
            <mxPoint x="500" y="-20" as="targetPoint" />
          </mxGeometry>
        </mxCell>
        <mxCell id="lmZwWqNMLVkpS8_7VC-I-41" value="Marka" style="ellipse;whiteSpace=wrap;html=1;" parent="1" vertex="1">
          <mxGeometry x="885" y="220" width="70" height="40" as="geometry" />
        </mxCell>
        <mxCell id="lmZwWqNMLVkpS8_7VC-I-42" value="Kapacitet" style="ellipse;whiteSpace=wrap;html=1;" parent="1" vertex="1">
          <mxGeometry x="885" y="270" width="70" height="40" as="geometry" />
        </mxCell>
        <mxCell id="lmZwWqNMLVkpS8_7VC-I-43" value="TipVozila" style="ellipse;whiteSpace=wrap;html=1;" parent="1" vertex="1">
          <mxGeometry x="865" y="320" width="70" height="40" as="geometry" />
        </mxCell>
        <mxCell id="lmZwWqNMLVkpS8_7VC-I-44" value="IDVozila" style="ellipse;whiteSpace=wrap;html=1;" parent="1" vertex="1">
          <mxGeometry x="855" y="170" width="70" height="40" as="geometry" />
        </mxCell>
        <mxCell id="lmZwWqNMLVkpS8_7VC-I-45" value="" style="endArrow=none;html=1;rounded=0;entryX=-0.006;entryY=0.654;entryDx=0;entryDy=0;entryPerimeter=0;" parent="1" target="lmZwWqNMLVkpS8_7VC-I-41" edge="1">
          <mxGeometry width="50" height="50" relative="1" as="geometry">
            <mxPoint x="825" y="280" as="sourcePoint" />
            <mxPoint x="875" y="230" as="targetPoint" />
          </mxGeometry>
        </mxCell>
        <mxCell id="lmZwWqNMLVkpS8_7VC-I-46" value="" style="endArrow=none;html=1;rounded=0;entryX=0.267;entryY=0.918;entryDx=0;entryDy=0;entryPerimeter=0;" parent="1" target="lmZwWqNMLVkpS8_7VC-I-44" edge="1">
          <mxGeometry width="50" height="50" relative="1" as="geometry">
            <mxPoint x="825" y="265" as="sourcePoint" />
            <mxPoint x="875" y="215" as="targetPoint" />
          </mxGeometry>
        </mxCell>
        <mxCell id="lmZwWqNMLVkpS8_7VC-I-48" value="" style="endArrow=none;html=1;rounded=0;exitX=1.005;exitY=0.687;exitDx=0;exitDy=0;exitPerimeter=0;" parent="1" source="lmZwWqNMLVkpS8_7VC-I-4" edge="1">
          <mxGeometry width="50" height="50" relative="1" as="geometry">
            <mxPoint x="835" y="290" as="sourcePoint" />
            <mxPoint x="885" y="290" as="targetPoint" />
          </mxGeometry>
        </mxCell>
        <mxCell id="lmZwWqNMLVkpS8_7VC-I-49" value="" style="endArrow=none;html=1;rounded=0;entryX=0;entryY=0;entryDx=0;entryDy=0;exitX=1.006;exitY=0.86;exitDx=0;exitDy=0;exitPerimeter=0;" parent="1" source="lmZwWqNMLVkpS8_7VC-I-4" target="lmZwWqNMLVkpS8_7VC-I-43" edge="1">
          <mxGeometry width="50" height="50" relative="1" as="geometry">
            <mxPoint x="795" y="370" as="sourcePoint" />
            <mxPoint x="845" y="320" as="targetPoint" />
          </mxGeometry>
        </mxCell>
        <mxCell id="lmZwWqNMLVkpS8_7VC-I-50" value="" style="endArrow=none;html=1;rounded=0;" parent="1" edge="1">
          <mxGeometry width="50" height="50" relative="1" as="geometry">
            <mxPoint x="870" y="200" as="sourcePoint" />
            <mxPoint x="910" y="200" as="targetPoint" />
          </mxGeometry>
        </mxCell>
        <mxCell id="lmZwWqNMLVkpS8_7VC-I-51" value="" style="endArrow=none;html=1;rounded=0;" parent="1" edge="1" source="lmZwWqNMLVkpS8_7VC-I-23">
          <mxGeometry width="50" height="50" relative="1" as="geometry">
            <mxPoint x="935" y="629.71" as="sourcePoint" />
            <mxPoint x="985" y="629.71" as="targetPoint" />
          </mxGeometry>
        </mxCell>
        <mxCell id="lmZwWqNMLVkpS8_7VC-I-53" value="IDRute" style="ellipse;whiteSpace=wrap;html=1;" parent="1" vertex="1">
          <mxGeometry x="875" y="-25" width="70" height="40" as="geometry" />
        </mxCell>
        <mxCell id="lmZwWqNMLVkpS8_7VC-I-54" value="Polazište" style="ellipse;whiteSpace=wrap;html=1;" parent="1" vertex="1">
          <mxGeometry x="895" y="20" width="70" height="40" as="geometry" />
        </mxCell>
        <mxCell id="lmZwWqNMLVkpS8_7VC-I-55" value="Odredište" style="ellipse;whiteSpace=wrap;html=1;" parent="1" vertex="1">
          <mxGeometry x="895" y="70" width="70" height="40" as="geometry" />
        </mxCell>
        <mxCell id="lmZwWqNMLVkpS8_7VC-I-57" value="DužinaRute" style="ellipse;whiteSpace=wrap;html=1;" parent="1" vertex="1">
          <mxGeometry x="885" y="120" width="70" height="40" as="geometry" />
        </mxCell>
        <mxCell id="lmZwWqNMLVkpS8_7VC-I-58" value="" style="endArrow=none;html=1;rounded=0;entryX=0;entryY=0.5;entryDx=0;entryDy=0;exitX=1;exitY=0.25;exitDx=0;exitDy=0;" parent="1" source="lmZwWqNMLVkpS8_7VC-I-5" edge="1">
          <mxGeometry width="50" height="50" relative="1" as="geometry">
            <mxPoint x="855" y="30" as="sourcePoint" />
            <mxPoint x="875" y="-10" as="targetPoint" />
          </mxGeometry>
        </mxCell>
        <mxCell id="lmZwWqNMLVkpS8_7VC-I-59" value="" style="endArrow=none;html=1;rounded=0;entryX=0;entryY=0.5;entryDx=0;entryDy=0;exitX=1.007;exitY=0.345;exitDx=0;exitDy=0;exitPerimeter=0;" parent="1" source="lmZwWqNMLVkpS8_7VC-I-5" target="lmZwWqNMLVkpS8_7VC-I-54" edge="1">
          <mxGeometry width="50" height="50" relative="1" as="geometry">
            <mxPoint x="795" y="150" as="sourcePoint" />
            <mxPoint x="845" y="100" as="targetPoint" />
          </mxGeometry>
        </mxCell>
        <mxCell id="lmZwWqNMLVkpS8_7VC-I-60" value="" style="endArrow=none;html=1;rounded=0;entryX=0;entryY=0.5;entryDx=0;entryDy=0;exitX=0.999;exitY=0.559;exitDx=0;exitDy=0;exitPerimeter=0;" parent="1" source="lmZwWqNMLVkpS8_7VC-I-5" target="lmZwWqNMLVkpS8_7VC-I-55" edge="1">
          <mxGeometry width="50" height="50" relative="1" as="geometry">
            <mxPoint x="805" y="210" as="sourcePoint" />
            <mxPoint x="855" y="160" as="targetPoint" />
          </mxGeometry>
        </mxCell>
        <mxCell id="lmZwWqNMLVkpS8_7VC-I-61" value="" style="endArrow=none;html=1;rounded=0;entryX=0;entryY=0.5;entryDx=0;entryDy=0;exitX=1.007;exitY=0.824;exitDx=0;exitDy=0;exitPerimeter=0;" parent="1" source="lmZwWqNMLVkpS8_7VC-I-5" target="lmZwWqNMLVkpS8_7VC-I-57" edge="1">
          <mxGeometry width="50" height="50" relative="1" as="geometry">
            <mxPoint x="845" y="250" as="sourcePoint" />
            <mxPoint x="895" y="200" as="targetPoint" />
          </mxGeometry>
        </mxCell>
        <mxCell id="lmZwWqNMLVkpS8_7VC-I-62" value="" style="endArrow=none;html=1;rounded=0;" parent="1" edge="1">
          <mxGeometry width="50" height="50" relative="1" as="geometry">
            <mxPoint x="885" as="sourcePoint" />
            <mxPoint x="935" as="targetPoint" />
          </mxGeometry>
        </mxCell>
        <mxCell id="lmZwWqNMLVkpS8_7VC-I-63" value="IDPorudžbine" style="ellipse;whiteSpace=wrap;html=1;" parent="1" vertex="1">
          <mxGeometry x="55" y="560" width="80" height="40" as="geometry" />
        </mxCell>
        <mxCell id="lmZwWqNMLVkpS8_7VC-I-64" value="DatumPorudžbine" style="ellipse;whiteSpace=wrap;html=1;" parent="1" vertex="1">
          <mxGeometry x="40" y="510" width="110" height="40" as="geometry" />
        </mxCell>
        <mxCell id="lmZwWqNMLVkpS8_7VC-I-65" value="Status" style="ellipse;whiteSpace=wrap;html=1;" parent="1" vertex="1">
          <mxGeometry x="60" y="460" width="70" height="40" as="geometry" />
        </mxCell>
        <mxCell id="lmZwWqNMLVkpS8_7VC-I-66" value="" style="endArrow=none;html=1;rounded=0;" parent="1" edge="1">
          <mxGeometry width="50" height="50" relative="1" as="geometry">
            <mxPoint x="62.5" y="585" as="sourcePoint" />
            <mxPoint x="127.5" y="585" as="targetPoint" />
          </mxGeometry>
        </mxCell>
        <mxCell id="lmZwWqNMLVkpS8_7VC-I-67" value="" style="endArrow=none;html=1;rounded=0;entryX=0;entryY=0.75;entryDx=0;entryDy=0;exitX=0.994;exitY=0.391;exitDx=0;exitDy=0;exitPerimeter=0;" parent="1" source="lmZwWqNMLVkpS8_7VC-I-63" target="lmZwWqNMLVkpS8_7VC-I-6" edge="1">
          <mxGeometry width="50" height="50" relative="1" as="geometry">
            <mxPoint x="270" y="650" as="sourcePoint" />
            <mxPoint x="320" y="600" as="targetPoint" />
          </mxGeometry>
        </mxCell>
        <mxCell id="lmZwWqNMLVkpS8_7VC-I-68" value="" style="endArrow=none;html=1;rounded=0;entryX=0.01;entryY=0.606;entryDx=0;entryDy=0;entryPerimeter=0;exitX=1;exitY=0.5;exitDx=0;exitDy=0;" parent="1" source="lmZwWqNMLVkpS8_7VC-I-64" target="lmZwWqNMLVkpS8_7VC-I-6" edge="1">
          <mxGeometry width="50" height="50" relative="1" as="geometry">
            <mxPoint x="270" y="650" as="sourcePoint" />
            <mxPoint x="320" y="600" as="targetPoint" />
          </mxGeometry>
        </mxCell>
        <mxCell id="lmZwWqNMLVkpS8_7VC-I-69" value="" style="endArrow=none;html=1;rounded=0;entryX=1;entryY=0.5;entryDx=0;entryDy=0;exitX=0.003;exitY=0.149;exitDx=0;exitDy=0;exitPerimeter=0;" parent="1" source="lmZwWqNMLVkpS8_7VC-I-6" target="lmZwWqNMLVkpS8_7VC-I-65" edge="1">
          <mxGeometry width="50" height="50" relative="1" as="geometry">
            <mxPoint x="270" y="650" as="sourcePoint" />
            <mxPoint x="320" y="600" as="targetPoint" />
          </mxGeometry>
        </mxCell>
        <mxCell id="lmZwWqNMLVkpS8_7VC-I-74" value="IDStavke" style="ellipse;whiteSpace=wrap;html=1;" parent="1" vertex="1">
          <mxGeometry x="45" y="245" width="70" height="40" as="geometry" />
        </mxCell>
        <mxCell id="lmZwWqNMLVkpS8_7VC-I-76" value="Težina" style="ellipse;whiteSpace=wrap;html=1;" parent="1" vertex="1">
          <mxGeometry x="40" y="315" width="70" height="40" as="geometry" />
        </mxCell>
        <mxCell id="lmZwWqNMLVkpS8_7VC-I-84" value="StavkaPorudžbine" style="shape=associativeEntity;whiteSpace=wrap;html=1;align=center;" parent="1" vertex="1">
          <mxGeometry x="170" y="295" width="140" height="60" as="geometry" />
        </mxCell>
        <mxCell id="lmZwWqNMLVkpS8_7VC-I-89" value="" style="endArrow=none;html=1;rounded=0;exitX=1;exitY=0.5;exitDx=0;exitDy=0;entryX=0;entryY=0.75;entryDx=0;entryDy=0;" parent="1" source="lmZwWqNMLVkpS8_7VC-I-76" target="lmZwWqNMLVkpS8_7VC-I-84" edge="1">
          <mxGeometry relative="1" as="geometry">
            <mxPoint x="385" y="295" as="sourcePoint" />
            <mxPoint x="435" y="315" as="targetPoint" />
          </mxGeometry>
        </mxCell>
        <mxCell id="lmZwWqNMLVkpS8_7VC-I-91" value="" style="endArrow=none;html=1;rounded=0;entryX=0.573;entryY=0.986;entryDx=0;entryDy=0;exitX=-0.006;exitY=0.375;exitDx=0;exitDy=0;entryPerimeter=0;exitPerimeter=0;" parent="1" source="lmZwWqNMLVkpS8_7VC-I-84" target="lmZwWqNMLVkpS8_7VC-I-74" edge="1">
          <mxGeometry width="50" height="50" relative="1" as="geometry">
            <mxPoint x="415" y="325" as="sourcePoint" />
            <mxPoint x="490" y="295" as="targetPoint" />
          </mxGeometry>
        </mxCell>
        <mxCell id="lmZwWqNMLVkpS8_7VC-I-96" value="(0,N)" style="text;html=1;align=center;verticalAlign=middle;resizable=0;points=[];autosize=1;strokeColor=none;fillColor=none;" parent="1" vertex="1">
          <mxGeometry x="240" y="470" width="50" height="30" as="geometry" />
        </mxCell>
        <mxCell id="lmZwWqNMLVkpS8_7VC-I-97" value="(0,N)" style="text;html=1;align=center;verticalAlign=middle;resizable=0;points=[];autosize=1;strokeColor=none;fillColor=none;" parent="1" vertex="1">
          <mxGeometry x="240" y="165" width="50" height="30" as="geometry" />
        </mxCell>
        <mxCell id="lmZwWqNMLVkpS8_7VC-I-100" value="IMA" style="shape=rhombus;perimeter=rhombusPerimeter;whiteSpace=wrap;html=1;align=center;" parent="1" vertex="1">
          <mxGeometry x="440" y="505" width="90" height="50" as="geometry" />
        </mxCell>
        <mxCell id="lmZwWqNMLVkpS8_7VC-I-101" value="" style="endArrow=none;html=1;rounded=0;exitX=0;exitY=0.5;exitDx=0;exitDy=0;entryX=1;entryY=0.5;entryDx=0;entryDy=0;" parent="1" source="lmZwWqNMLVkpS8_7VC-I-100" target="lmZwWqNMLVkpS8_7VC-I-6" edge="1">
          <mxGeometry width="50" height="50" relative="1" as="geometry">
            <mxPoint x="180" y="610" as="sourcePoint" />
            <mxPoint x="230" y="560" as="targetPoint" />
          </mxGeometry>
        </mxCell>
        <mxCell id="X-RrgHV1Gdf56iwSbWIR-2" value="" style="endArrow=none;html=1;rounded=0;entryX=1;entryY=0.5;entryDx=0;entryDy=0;exitX=0;exitY=0.5;exitDx=0;exitDy=0;" parent="1" source="lmZwWqNMLVkpS8_7VC-I-2" target="lmZwWqNMLVkpS8_7VC-I-100" edge="1">
          <mxGeometry width="50" height="50" relative="1" as="geometry">
            <mxPoint x="280" y="450" as="sourcePoint" />
            <mxPoint x="330" y="400" as="targetPoint" />
          </mxGeometry>
        </mxCell>
        <mxCell id="X-RrgHV1Gdf56iwSbWIR-3" value="IMA" style="shape=rhombus;perimeter=rhombusPerimeter;whiteSpace=wrap;html=1;align=center;" parent="1" vertex="1">
          <mxGeometry x="725" y="130" width="90" height="50" as="geometry" />
        </mxCell>
        <mxCell id="X-RrgHV1Gdf56iwSbWIR-4" value="" style="endArrow=none;html=1;rounded=0;entryX=0.5;entryY=0;entryDx=0;entryDy=0;" parent="1" target="X-RrgHV1Gdf56iwSbWIR-3" edge="1">
          <mxGeometry width="50" height="50" relative="1" as="geometry">
            <mxPoint x="775" y="75" as="sourcePoint" />
            <mxPoint x="715" y="125" as="targetPoint" />
          </mxGeometry>
        </mxCell>
        <mxCell id="X-RrgHV1Gdf56iwSbWIR-5" value="" style="endArrow=none;html=1;rounded=0;exitX=0.5;exitY=1;exitDx=0;exitDy=0;" parent="1" source="X-RrgHV1Gdf56iwSbWIR-3" edge="1">
          <mxGeometry width="50" height="50" relative="1" as="geometry">
            <mxPoint x="770" y="190" as="sourcePoint" />
            <mxPoint x="765" y="250" as="targetPoint" />
          </mxGeometry>
        </mxCell>
        <mxCell id="X-RrgHV1Gdf56iwSbWIR-6" value="(1,1)" style="text;html=1;strokeColor=none;fillColor=none;align=center;verticalAlign=middle;whiteSpace=wrap;rounded=0;" parent="1" vertex="1">
          <mxGeometry x="755" y="225" width="60" height="30" as="geometry" />
        </mxCell>
        <mxCell id="X-RrgHV1Gdf56iwSbWIR-8" value="(1,N)" style="text;html=1;strokeColor=none;fillColor=none;align=center;verticalAlign=middle;whiteSpace=wrap;rounded=0;" parent="1" vertex="1">
          <mxGeometry x="765" y="70" width="60" height="30" as="geometry" />
        </mxCell>
        <mxCell id="X-RrgHV1Gdf56iwSbWIR-13" value="IDVozača" style="ellipse;whiteSpace=wrap;html=1;" parent="1" vertex="1">
          <mxGeometry x="470" y="140" width="70" height="40" as="geometry" />
        </mxCell>
        <mxCell id="X-RrgHV1Gdf56iwSbWIR-14" value="Ime" style="ellipse;whiteSpace=wrap;html=1;" parent="1" vertex="1">
          <mxGeometry x="555" y="140" width="70" height="40" as="geometry" />
        </mxCell>
        <mxCell id="X-RrgHV1Gdf56iwSbWIR-16" value="&lt;font style=&quot;font-size: 14px;&quot;&gt;VOZAČ&lt;/font&gt;" style="shape=associativeEntity;whiteSpace=wrap;html=1;align=center;" parent="1" vertex="1">
          <mxGeometry x="450" y="77.5" width="120" height="45" as="geometry" />
        </mxCell>
        <mxCell id="X-RrgHV1Gdf56iwSbWIR-21" value="JMBG" style="ellipse;whiteSpace=wrap;html=1;" parent="1" vertex="1">
          <mxGeometry x="390" y="130" width="70" height="40" as="geometry" />
        </mxCell>
        <mxCell id="X-RrgHV1Gdf56iwSbWIR-23" value="" style="endArrow=none;html=1;rounded=0;entryX=0.169;entryY=0.999;entryDx=0;entryDy=0;entryPerimeter=0;exitX=0.5;exitY=0;exitDx=0;exitDy=0;" parent="1" source="X-RrgHV1Gdf56iwSbWIR-21" target="X-RrgHV1Gdf56iwSbWIR-16" edge="1">
          <mxGeometry width="50" height="50" relative="1" as="geometry">
            <mxPoint x="520" y="200" as="sourcePoint" />
            <mxPoint x="570" y="150" as="targetPoint" />
          </mxGeometry>
        </mxCell>
        <mxCell id="X-RrgHV1Gdf56iwSbWIR-24" value="" style="endArrow=none;html=1;rounded=0;entryX=0.422;entryY=0.991;entryDx=0;entryDy=0;entryPerimeter=0;exitX=0.5;exitY=0;exitDx=0;exitDy=0;" parent="1" source="X-RrgHV1Gdf56iwSbWIR-13" target="X-RrgHV1Gdf56iwSbWIR-16" edge="1">
          <mxGeometry width="50" height="50" relative="1" as="geometry">
            <mxPoint x="500" y="190" as="sourcePoint" />
            <mxPoint x="550" y="140" as="targetPoint" />
          </mxGeometry>
        </mxCell>
        <mxCell id="X-RrgHV1Gdf56iwSbWIR-25" value="" style="endArrow=none;html=1;rounded=0;entryX=0.5;entryY=0;entryDx=0;entryDy=0;exitX=0.75;exitY=1;exitDx=0;exitDy=0;" parent="1" source="X-RrgHV1Gdf56iwSbWIR-16" target="X-RrgHV1Gdf56iwSbWIR-14" edge="1">
          <mxGeometry width="50" height="50" relative="1" as="geometry">
            <mxPoint x="500" y="190" as="sourcePoint" />
            <mxPoint x="550" y="140" as="targetPoint" />
          </mxGeometry>
        </mxCell>
        <mxCell id="X-RrgHV1Gdf56iwSbWIR-26" value="&lt;font style=&quot;font-size: 14px;&quot;&gt;PREVOZ&lt;/font&gt;" style="shape=associativeEntity;whiteSpace=wrap;html=1;align=center;" parent="1" vertex="1">
          <mxGeometry x="685" y="370" width="140" height="60" as="geometry" />
        </mxCell>
        <mxCell id="X-RrgHV1Gdf56iwSbWIR-32" value="DatumPrevoza" style="ellipse;whiteSpace=wrap;html=1;" parent="1" vertex="1">
          <mxGeometry x="560" y="350" width="90" height="40" as="geometry" />
        </mxCell>
        <mxCell id="X-RrgHV1Gdf56iwSbWIR-33" value="Lokacija" style="ellipse;whiteSpace=wrap;html=1;" parent="1" vertex="1">
          <mxGeometry x="570" y="410" width="70" height="40" as="geometry" />
        </mxCell>
        <mxCell id="X-RrgHV1Gdf56iwSbWIR-34" value="" style="endArrow=none;html=1;rounded=0;entryX=0;entryY=0.25;entryDx=0;entryDy=0;exitX=1;exitY=0.5;exitDx=0;exitDy=0;" parent="1" source="X-RrgHV1Gdf56iwSbWIR-32" target="X-RrgHV1Gdf56iwSbWIR-26" edge="1">
          <mxGeometry width="50" height="50" relative="1" as="geometry">
            <mxPoint x="760" y="410" as="sourcePoint" />
            <mxPoint x="810" y="360" as="targetPoint" />
          </mxGeometry>
        </mxCell>
        <mxCell id="X-RrgHV1Gdf56iwSbWIR-35" value="" style="endArrow=none;html=1;rounded=0;exitX=0;exitY=0.75;exitDx=0;exitDy=0;entryX=1.001;entryY=0.419;entryDx=0;entryDy=0;entryPerimeter=0;" parent="1" source="X-RrgHV1Gdf56iwSbWIR-26" target="X-RrgHV1Gdf56iwSbWIR-33" edge="1">
          <mxGeometry width="50" height="50" relative="1" as="geometry">
            <mxPoint x="760" y="410" as="sourcePoint" />
            <mxPoint x="810" y="360" as="targetPoint" />
          </mxGeometry>
        </mxCell>
        <mxCell id="X-RrgHV1Gdf56iwSbWIR-36" value="(1,N)" style="text;html=1;strokeColor=none;fillColor=none;align=center;verticalAlign=middle;whiteSpace=wrap;rounded=0;" parent="1" vertex="1">
          <mxGeometry x="755" y="307.5" width="60" height="30" as="geometry" />
        </mxCell>
        <mxCell id="X-RrgHV1Gdf56iwSbWIR-37" value="(1,N)" style="text;html=1;strokeColor=none;fillColor=none;align=center;verticalAlign=middle;whiteSpace=wrap;rounded=0;" parent="1" vertex="1">
          <mxGeometry x="745" y="470" width="60" height="30" as="geometry" />
        </mxCell>
        <mxCell id="X-RrgHV1Gdf56iwSbWIR-38" value="(1,N)" style="text;html=1;strokeColor=none;fillColor=none;align=center;verticalAlign=middle;whiteSpace=wrap;rounded=0;" parent="1" vertex="1">
          <mxGeometry x="645" y="250" width="60" height="30" as="geometry" />
        </mxCell>
        <mxCell id="X-RrgHV1Gdf56iwSbWIR-39" value="(1,N)" style="text;html=1;strokeColor=none;fillColor=none;align=center;verticalAlign=middle;whiteSpace=wrap;rounded=0;" parent="1" vertex="1">
          <mxGeometry x="500" y="40" width="60" height="30" as="geometry" />
        </mxCell>
        <mxCell id="Z6134khWnOBLi61K8WME-15" style="edgeStyle=orthogonalEdgeStyle;rounded=0;orthogonalLoop=1;jettySize=auto;html=1;entryX=0.5;entryY=1;entryDx=0;entryDy=0;" edge="1" parent="1" source="Z6134khWnOBLi61K8WME-1" target="Z6134khWnOBLi61K8WME-12">
          <mxGeometry relative="1" as="geometry" />
        </mxCell>
        <mxCell id="Z6134khWnOBLi61K8WME-1" value="DOKUMENTACIJA" style="rounded=0;whiteSpace=wrap;html=1;" vertex="1" parent="1">
          <mxGeometry x="695" y="800" width="120" height="60" as="geometry" />
        </mxCell>
        <mxCell id="Z6134khWnOBLi61K8WME-3" value="IDDokumenta" style="ellipse;whiteSpace=wrap;html=1;" vertex="1" parent="1">
          <mxGeometry x="570" y="780" width="90" height="40" as="geometry" />
        </mxCell>
        <mxCell id="Z6134khWnOBLi61K8WME-4" value="Sadržaj" style="ellipse;whiteSpace=wrap;html=1;" vertex="1" parent="1">
          <mxGeometry x="580" y="830" width="70" height="40" as="geometry" />
        </mxCell>
        <mxCell id="Z6134khWnOBLi61K8WME-5" value="DatumKreiranja" style="ellipse;whiteSpace=wrap;html=1;" vertex="1" parent="1">
          <mxGeometry x="580" y="880" width="90" height="40" as="geometry" />
        </mxCell>
        <mxCell id="Z6134khWnOBLi61K8WME-6" value="" style="endArrow=none;html=1;rounded=0;exitX=0.994;exitY=0.391;exitDx=0;exitDy=0;exitPerimeter=0;" edge="1" parent="1" target="Z6134khWnOBLi61K8WME-1">
          <mxGeometry width="50" height="50" relative="1" as="geometry">
            <mxPoint x="660" y="801" as="sourcePoint" />
            <mxPoint x="705" y="770" as="targetPoint" />
          </mxGeometry>
        </mxCell>
        <mxCell id="Z6134khWnOBLi61K8WME-7" value="" style="endArrow=none;html=1;rounded=0;entryX=0;entryY=0.5;entryDx=0;entryDy=0;exitX=0.994;exitY=0.391;exitDx=0;exitDy=0;exitPerimeter=0;" edge="1" parent="1" target="Z6134khWnOBLi61K8WME-1">
          <mxGeometry width="50" height="50" relative="1" as="geometry">
            <mxPoint x="650" y="851" as="sourcePoint" />
            <mxPoint x="695" y="820" as="targetPoint" />
          </mxGeometry>
        </mxCell>
        <mxCell id="Z6134khWnOBLi61K8WME-8" value="" style="endArrow=none;html=1;rounded=0;entryX=0;entryY=0.75;entryDx=0;entryDy=0;exitX=0.7;exitY=0.057;exitDx=0;exitDy=0;exitPerimeter=0;" edge="1" parent="1" source="Z6134khWnOBLi61K8WME-5" target="Z6134khWnOBLi61K8WME-1">
          <mxGeometry width="50" height="50" relative="1" as="geometry">
            <mxPoint x="655" y="870" as="sourcePoint" />
            <mxPoint x="700" y="839" as="targetPoint" />
          </mxGeometry>
        </mxCell>
        <mxCell id="Z6134khWnOBLi61K8WME-9" value="(1, N)" style="text;html=1;align=center;verticalAlign=middle;resizable=0;points=[];autosize=1;strokeColor=none;fillColor=none;" vertex="1" parent="1">
          <mxGeometry x="300" y="505" width="50" height="30" as="geometry" />
        </mxCell>
        <mxCell id="Z6134khWnOBLi61K8WME-10" value="(1, N)" style="text;html=1;align=center;verticalAlign=middle;resizable=0;points=[];autosize=1;strokeColor=none;fillColor=none;" vertex="1" parent="1">
          <mxGeometry x="645" y="500" width="50" height="30" as="geometry" />
        </mxCell>
        <mxCell id="Z6134khWnOBLi61K8WME-11" value="" style="endArrow=none;html=1;rounded=0;" edge="1" parent="1" target="lmZwWqNMLVkpS8_7VC-I-23">
          <mxGeometry width="50" height="50" relative="1" as="geometry">
            <mxPoint x="935" y="629.71" as="sourcePoint" />
            <mxPoint x="985" y="629.71" as="targetPoint" />
          </mxGeometry>
        </mxCell>
        <mxCell id="lmZwWqNMLVkpS8_7VC-I-23" value="IDRobe" style="ellipse;whiteSpace=wrap;html=1;" parent="1" vertex="1">
          <mxGeometry x="925" y="600" width="70" height="40" as="geometry" />
        </mxCell>
        <mxCell id="Z6134khWnOBLi61K8WME-12" value="SADRŽI" style="rhombus;whiteSpace=wrap;html=1;" vertex="1" parent="1">
          <mxGeometry x="715" y="640" width="80" height="80" as="geometry" />
        </mxCell>
        <mxCell id="Z6134khWnOBLi61K8WME-17" value="(1, N)" style="text;html=1;align=center;verticalAlign=middle;resizable=0;points=[];autosize=1;strokeColor=none;fillColor=none;" vertex="1" parent="1">
          <mxGeometry x="750" y="557.5" width="50" height="30" as="geometry" />
        </mxCell>
        <mxCell id="Z6134khWnOBLi61K8WME-18" value="(1, N)" style="text;html=1;align=center;verticalAlign=middle;resizable=0;points=[];autosize=1;strokeColor=none;fillColor=none;" vertex="1" parent="1">
          <mxGeometry x="750" y="770" width="50" height="30" as="geometry" />
        </mxCell>
      </root>
    </mxGraphModel>
  </diagram>
</mxfile>
